<?xml version="1.0" encoding="utf-8" standalone="no"?>
<!DOCTYPE svg PUBLIC "-//W3C//DTD SVG 1.1//EN"
  "http://www.w3.org/Graphics/SVG/1.1/DTD/svg11.dtd">
<svg xmlns:xlink="http://www.w3.org/1999/xlink" width="460.8pt" height="316.8pt" viewBox="0 0 460.8 316.8" xmlns="http://www.w3.org/2000/svg" version="1.1">
 <metadata>
  <rdf:RDF xmlns:dc="http://purl.org/dc/elements/1.1/" xmlns:cc="http://creativecommons.org/ns#" xmlns:rdf="http://www.w3.org/1999/02/22-rdf-syntax-ns#">
   <cc:Work>
    <dc:type rdf:resource="http://purl.org/dc/dcmitype/StillImage"/>
    <dc:date>2023-05-15T14:13:08.808359</dc:date>
    <dc:format>image/svg+xml</dc:format>
    <dc:creator>
     <cc:Agent>
      <dc:title>Matplotlib v3.5.3, https://matplotlib.org/</dc:title>
     </cc:Agent>
    </dc:creator>
   </cc:Work>
  </rdf:RDF>
 </metadata>
 <defs>
  <style type="text/css">*{stroke-linejoin: round; stroke-linecap: butt}</style>
 </defs>
 <g id="figure_1">
  <g id="patch_1">
   <path d="M 0 316.8 
L 460.8 316.8 
L 460.8 0 
L 0 0 
z
" style="fill: #ffffff"/>
  </g>
  <g id="axes_1">
   <g id="patch_2">
    <path d="M 57.6 281.952 
L 414.72 281.952 
L 414.72 38.016 
L 57.6 38.016 
z
" style="fill: #ffffff"/>
   </g>
   <g id="matplotlib.axis_1">
    <g id="xtick_1">
     <g id="line2d_1">
      <defs>
       <path id="m4decdb5a66" d="M 0 0 
L 0 6 
" style="stroke: #262626; stroke-width: 0.8"/>
      </defs>
      <g>
       <use xlink:href="#m4decdb5a66" x="57.6" y="281.952" style="fill: #262626; stroke: #262626; stroke-width: 0.8"/>
      </g>
     </g>
     <g id="text_1">
      <!-- 0.0 -->
      <g style="fill: #262626" transform="translate(52.04 299.27825)scale(0.08 -0.08)">
       <defs>
        <path id="ArialMT-30" d="M 266 2259 
Q 266 3072 433 3567 
Q 600 4063 929 4331 
Q 1259 4600 1759 4600 
Q 2128 4600 2406 4451 
Q 2684 4303 2865 4023 
Q 3047 3744 3150 3342 
Q 3253 2941 3253 2259 
Q 3253 1453 3087 958 
Q 2922 463 2592 192 
Q 2263 -78 1759 -78 
Q 1097 -78 719 397 
Q 266 969 266 2259 
z
M 844 2259 
Q 844 1131 1108 757 
Q 1372 384 1759 384 
Q 2147 384 2411 759 
Q 2675 1134 2675 2259 
Q 2675 3391 2411 3762 
Q 2147 4134 1753 4134 
Q 1366 4134 1134 3806 
Q 844 3388 844 2259 
z
" transform="scale(0.015625)"/>
        <path id="ArialMT-2e" d="M 581 0 
L 581 641 
L 1222 641 
L 1222 0 
L 581 0 
z
" transform="scale(0.015625)"/>
       </defs>
       <use xlink:href="#ArialMT-30"/>
       <use xlink:href="#ArialMT-2e" x="55.615234"/>
       <use xlink:href="#ArialMT-30" x="83.398438"/>
      </g>
     </g>
    </g>
    <g id="xtick_2">
     <g id="line2d_2">
      <g>
       <use xlink:href="#m4decdb5a66" x="129.024" y="281.952" style="fill: #262626; stroke: #262626; stroke-width: 0.8"/>
      </g>
     </g>
     <g id="text_2">
      <!-- 0.2 -->
      <g style="fill: #262626" transform="translate(123.464 299.27825)scale(0.08 -0.08)">
       <defs>
        <path id="ArialMT-32" d="M 3222 541 
L 3222 0 
L 194 0 
Q 188 203 259 391 
Q 375 700 629 1000 
Q 884 1300 1366 1694 
Q 2113 2306 2375 2664 
Q 2638 3022 2638 3341 
Q 2638 3675 2398 3904 
Q 2159 4134 1775 4134 
Q 1369 4134 1125 3890 
Q 881 3647 878 3216 
L 300 3275 
Q 359 3922 746 4261 
Q 1134 4600 1788 4600 
Q 2447 4600 2831 4234 
Q 3216 3869 3216 3328 
Q 3216 3053 3103 2787 
Q 2991 2522 2730 2228 
Q 2469 1934 1863 1422 
Q 1356 997 1212 845 
Q 1069 694 975 541 
L 3222 541 
z
" transform="scale(0.015625)"/>
       </defs>
       <use xlink:href="#ArialMT-30"/>
       <use xlink:href="#ArialMT-2e" x="55.615234"/>
       <use xlink:href="#ArialMT-32" x="83.398438"/>
      </g>
     </g>
    </g>
    <g id="xtick_3">
     <g id="line2d_3">
      <g>
       <use xlink:href="#m4decdb5a66" x="200.448" y="281.952" style="fill: #262626; stroke: #262626; stroke-width: 0.8"/>
      </g>
     </g>
     <g id="text_3">
      <!-- 0.4 -->
      <g style="fill: #262626" transform="translate(194.888 299.27825)scale(0.08 -0.08)">
       <defs>
        <path id="ArialMT-34" d="M 2069 0 
L 2069 1097 
L 81 1097 
L 81 1613 
L 2172 4581 
L 2631 4581 
L 2631 1613 
L 3250 1613 
L 3250 1097 
L 2631 1097 
L 2631 0 
L 2069 0 
z
M 2069 1613 
L 2069 3678 
L 634 1613 
L 2069 1613 
z
" transform="scale(0.015625)"/>
       </defs>
       <use xlink:href="#ArialMT-30"/>
       <use xlink:href="#ArialMT-2e" x="55.615234"/>
       <use xlink:href="#ArialMT-34" x="83.398438"/>
      </g>
     </g>
    </g>
    <g id="xtick_4">
     <g id="line2d_4">
      <g>
       <use xlink:href="#m4decdb5a66" x="271.872" y="281.952" style="fill: #262626; stroke: #262626; stroke-width: 0.8"/>
      </g>
     </g>
     <g id="text_4">
      <!-- 0.6 -->
      <g style="fill: #262626" transform="translate(266.312 299.27825)scale(0.08 -0.08)">
       <defs>
        <path id="ArialMT-36" d="M 3184 3459 
L 2625 3416 
Q 2550 3747 2413 3897 
Q 2184 4138 1850 4138 
Q 1581 4138 1378 3988 
Q 1113 3794 959 3422 
Q 806 3050 800 2363 
Q 1003 2672 1297 2822 
Q 1591 2972 1913 2972 
Q 2475 2972 2870 2558 
Q 3266 2144 3266 1488 
Q 3266 1056 3080 686 
Q 2894 316 2569 119 
Q 2244 -78 1831 -78 
Q 1128 -78 684 439 
Q 241 956 241 2144 
Q 241 3472 731 4075 
Q 1159 4600 1884 4600 
Q 2425 4600 2770 4297 
Q 3116 3994 3184 3459 
z
M 888 1484 
Q 888 1194 1011 928 
Q 1134 663 1356 523 
Q 1578 384 1822 384 
Q 2178 384 2434 671 
Q 2691 959 2691 1453 
Q 2691 1928 2437 2201 
Q 2184 2475 1800 2475 
Q 1419 2475 1153 2201 
Q 888 1928 888 1484 
z
" transform="scale(0.015625)"/>
       </defs>
       <use xlink:href="#ArialMT-30"/>
       <use xlink:href="#ArialMT-2e" x="55.615234"/>
       <use xlink:href="#ArialMT-36" x="83.398438"/>
      </g>
     </g>
    </g>
    <g id="xtick_5">
     <g id="line2d_5">
      <g>
       <use xlink:href="#m4decdb5a66" x="343.296" y="281.952" style="fill: #262626; stroke: #262626; stroke-width: 0.8"/>
      </g>
     </g>
     <g id="text_5">
      <!-- 0.8 -->
      <g style="fill: #262626" transform="translate(337.736 299.27825)scale(0.08 -0.08)">
       <defs>
        <path id="ArialMT-38" d="M 1131 2484 
Q 781 2613 612 2850 
Q 444 3088 444 3419 
Q 444 3919 803 4259 
Q 1163 4600 1759 4600 
Q 2359 4600 2725 4251 
Q 3091 3903 3091 3403 
Q 3091 3084 2923 2848 
Q 2756 2613 2416 2484 
Q 2838 2347 3058 2040 
Q 3278 1734 3278 1309 
Q 3278 722 2862 322 
Q 2447 -78 1769 -78 
Q 1091 -78 675 323 
Q 259 725 259 1325 
Q 259 1772 486 2073 
Q 713 2375 1131 2484 
z
M 1019 3438 
Q 1019 3113 1228 2906 
Q 1438 2700 1772 2700 
Q 2097 2700 2305 2904 
Q 2513 3109 2513 3406 
Q 2513 3716 2298 3927 
Q 2084 4138 1766 4138 
Q 1444 4138 1231 3931 
Q 1019 3725 1019 3438 
z
M 838 1322 
Q 838 1081 952 856 
Q 1066 631 1291 507 
Q 1516 384 1775 384 
Q 2178 384 2440 643 
Q 2703 903 2703 1303 
Q 2703 1709 2433 1975 
Q 2163 2241 1756 2241 
Q 1359 2241 1098 1978 
Q 838 1716 838 1322 
z
" transform="scale(0.015625)"/>
       </defs>
       <use xlink:href="#ArialMT-30"/>
       <use xlink:href="#ArialMT-2e" x="55.615234"/>
       <use xlink:href="#ArialMT-38" x="83.398438"/>
      </g>
     </g>
    </g>
    <g id="xtick_6">
     <g id="line2d_6">
      <g>
       <use xlink:href="#m4decdb5a66" x="414.72" y="281.952" style="fill: #262626; stroke: #262626; stroke-width: 0.8"/>
      </g>
     </g>
     <g id="text_6">
      <!-- 1.0 -->
      <g style="fill: #262626" transform="translate(409.16 299.27825)scale(0.08 -0.08)">
       <defs>
        <path id="ArialMT-31" d="M 2384 0 
L 1822 0 
L 1822 3584 
Q 1619 3391 1289 3197 
Q 959 3003 697 2906 
L 697 3450 
Q 1169 3672 1522 3987 
Q 1875 4303 2022 4600 
L 2384 4600 
L 2384 0 
z
" transform="scale(0.015625)"/>
       </defs>
       <use xlink:href="#ArialMT-31"/>
       <use xlink:href="#ArialMT-2e" x="55.615234"/>
       <use xlink:href="#ArialMT-30" x="83.398438"/>
      </g>
     </g>
    </g>
   </g>
   <g id="matplotlib.axis_2">
    <g id="ytick_1">
     <g id="line2d_7">
      <defs>
       <path id="m6d794ac62b" d="M 0 0 
L -6 0 
" style="stroke: #262626; stroke-width: 0.8"/>
      </defs>
      <g>
       <use xlink:href="#m6d794ac62b" x="57.6" y="281.952" style="fill: #262626; stroke: #262626; stroke-width: 0.8"/>
      </g>
     </g>
     <g id="text_7">
      <!-- 0 -->
      <g style="fill: #262626" transform="translate(41.55125 284.815125)scale(0.08 -0.08)">
       <use xlink:href="#ArialMT-30"/>
      </g>
     </g>
    </g>
    <g id="ytick_2">
     <g id="line2d_8">
      <g>
       <use xlink:href="#m6d794ac62b" x="57.6" y="235.488" style="fill: #262626; stroke: #262626; stroke-width: 0.8"/>
      </g>
     </g>
     <g id="text_8">
      <!-- 2 -->
      <g style="fill: #262626" transform="translate(41.55125 238.351125)scale(0.08 -0.08)">
       <use xlink:href="#ArialMT-32"/>
      </g>
     </g>
    </g>
    <g id="ytick_3">
     <g id="line2d_9">
      <g>
       <use xlink:href="#m6d794ac62b" x="57.6" y="189.024" style="fill: #262626; stroke: #262626; stroke-width: 0.8"/>
      </g>
     </g>
     <g id="text_9">
      <!-- 4 -->
      <g style="fill: #262626" transform="translate(41.55125 191.887125)scale(0.08 -0.08)">
       <use xlink:href="#ArialMT-34"/>
      </g>
     </g>
    </g>
    <g id="ytick_4">
     <g id="line2d_10">
      <g>
       <use xlink:href="#m6d794ac62b" x="57.6" y="142.56" style="fill: #262626; stroke: #262626; stroke-width: 0.8"/>
      </g>
     </g>
     <g id="text_10">
      <!-- 6 -->
      <g style="fill: #262626" transform="translate(41.55125 145.423125)scale(0.08 -0.08)">
       <use xlink:href="#ArialMT-36"/>
      </g>
     </g>
    </g>
    <g id="ytick_5">
     <g id="line2d_11">
      <g>
       <use xlink:href="#m6d794ac62b" x="57.6" y="96.096" style="fill: #262626; stroke: #262626; stroke-width: 0.8"/>
      </g>
     </g>
     <g id="text_11">
      <!-- 8 -->
      <g style="fill: #262626" transform="translate(41.55125 98.959125)scale(0.08 -0.08)">
       <use xlink:href="#ArialMT-38"/>
      </g>
     </g>
    </g>
    <g id="ytick_6">
     <g id="line2d_12">
      <g>
       <use xlink:href="#m6d794ac62b" x="57.6" y="49.632" style="fill: #262626; stroke: #262626; stroke-width: 0.8"/>
      </g>
     </g>
     <g id="text_12">
      <!-- 10 -->
      <g style="fill: #262626" transform="translate(37.1025 52.495125)scale(0.08 -0.08)">
       <use xlink:href="#ArialMT-31"/>
       <use xlink:href="#ArialMT-30" x="55.615234"/>
      </g>
     </g>
    </g>
   </g>
   <g id="patch_3">
    <path d="M 57.6 281.952 
L 64.888163 281.952 
L 64.888163 72.492288 
L 57.6 72.492288 
z
" clip-path="url(#p688a99c73a)" style="fill: #0000ff; opacity: 0.3; stroke: #ffffff; stroke-width: 0.24; stroke-linejoin: miter"/>
   </g>
   <g id="patch_4">
    <path d="M 64.888163 281.952 
L 72.176327 281.952 
L 72.176327 113.473536 
L 64.888163 113.473536 
z
" clip-path="url(#p688a99c73a)" style="fill: #0000ff; opacity: 0.3; stroke: #ffffff; stroke-width: 0.24; stroke-linejoin: miter"/>
   </g>
   <g id="patch_5">
    <path d="M 72.176327 281.952 
L 79.46449 281.952 
L 79.46449 128.27232 
L 72.176327 128.27232 
z
" clip-path="url(#p688a99c73a)" style="fill: #0000ff; opacity: 0.3; stroke: #ffffff; stroke-width: 0.24; stroke-linejoin: miter"/>
   </g>
   <g id="patch_6">
    <path d="M 79.46449 281.952 
L 86.752653 281.952 
L 86.752653 178.360512 
L 79.46449 178.360512 
z
" clip-path="url(#p688a99c73a)" style="fill: #0000ff; opacity: 0.3; stroke: #ffffff; stroke-width: 0.24; stroke-linejoin: miter"/>
   </g>
   <g id="patch_7">
    <path d="M 86.752653 281.952 
L 94.040816 281.952 
L 94.040816 182.913984 
L 86.752653 182.913984 
z
" clip-path="url(#p688a99c73a)" style="fill: #0000ff; opacity: 0.3; stroke: #ffffff; stroke-width: 0.24; stroke-linejoin: miter"/>
   </g>
   <g id="patch_8">
    <path d="M 94.040816 281.952 
L 101.32898 281.952 
L 101.32898 192.020928 
L 94.040816 192.020928 
z
" clip-path="url(#p688a99c73a)" style="fill: #0000ff; opacity: 0.3; stroke: #ffffff; stroke-width: 0.24; stroke-linejoin: miter"/>
   </g>
   <g id="patch_9">
    <path d="M 101.32898 281.952 
L 108.617143 281.952 
L 108.617143 211.373184 
L 101.32898 211.373184 
z
" clip-path="url(#p688a99c73a)" style="fill: #0000ff; opacity: 0.3; stroke: #ffffff; stroke-width: 0.24; stroke-linejoin: miter"/>
   </g>
   <g id="patch_10">
    <path d="M 108.617143 281.952 
L 115.905306 281.952 
L 115.905306 221.618496 
L 108.617143 221.618496 
z
" clip-path="url(#p688a99c73a)" style="fill: #0000ff; opacity: 0.3; stroke: #ffffff; stroke-width: 0.24; stroke-linejoin: miter"/>
   </g>
   <g id="patch_11">
    <path d="M 115.905306 281.952 
L 123.193469 281.952 
L 123.193469 239.832384 
L 115.905306 239.832384 
z
" clip-path="url(#p688a99c73a)" style="fill: #0000ff; opacity: 0.3; stroke: #ffffff; stroke-width: 0.24; stroke-linejoin: miter"/>
   </g>
   <g id="patch_12">
    <path d="M 123.193469 281.952 
L 130.481633 281.952 
L 130.481633 260.323008 
L 123.193469 260.323008 
z
" clip-path="url(#p688a99c73a)" style="fill: #0000ff; opacity: 0.3; stroke: #ffffff; stroke-width: 0.24; stroke-linejoin: miter"/>
   </g>
   <g id="patch_13">
    <path d="M 130.481633 281.952 
L 137.769796 281.952 
L 137.769796 256.907904 
L 130.481633 256.907904 
z
" clip-path="url(#p688a99c73a)" style="fill: #0000ff; opacity: 0.3; stroke: #ffffff; stroke-width: 0.24; stroke-linejoin: miter"/>
   </g>
   <g id="patch_14">
    <path d="M 137.769796 281.952 
L 145.057959 281.952 
L 145.057959 263.738112 
L 137.769796 263.738112 
z
" clip-path="url(#p688a99c73a)" style="fill: #0000ff; opacity: 0.3; stroke: #ffffff; stroke-width: 0.24; stroke-linejoin: miter"/>
   </g>
   <g id="patch_15">
    <path d="M 145.057959 281.952 
L 152.346122 281.952 
L 152.346122 259.18464 
L 145.057959 259.18464 
z
" clip-path="url(#p688a99c73a)" style="fill: #0000ff; opacity: 0.3; stroke: #ffffff; stroke-width: 0.24; stroke-linejoin: miter"/>
   </g>
   <g id="patch_16">
    <path d="M 152.346122 281.952 
L 159.634286 281.952 
L 159.634286 273.983424 
L 152.346122 273.983424 
z
" clip-path="url(#p688a99c73a)" style="fill: #0000ff; opacity: 0.3; stroke: #ffffff; stroke-width: 0.24; stroke-linejoin: miter"/>
   </g>
   <g id="patch_17">
    <path d="M 159.634286 281.952 
L 166.922449 281.952 
L 166.922449 277.398528 
L 159.634286 277.398528 
z
" clip-path="url(#p688a99c73a)" style="fill: #0000ff; opacity: 0.3; stroke: #ffffff; stroke-width: 0.24; stroke-linejoin: miter"/>
   </g>
   <g id="patch_18">
    <path d="M 166.922449 281.952 
L 174.210612 281.952 
L 174.210612 262.599744 
L 166.922449 262.599744 
z
" clip-path="url(#p688a99c73a)" style="fill: #0000ff; opacity: 0.3; stroke: #ffffff; stroke-width: 0.24; stroke-linejoin: miter"/>
   </g>
   <g id="patch_19">
    <path d="M 174.210612 281.952 
L 181.498776 281.952 
L 181.498776 276.26016 
L 174.210612 276.26016 
z
" clip-path="url(#p688a99c73a)" style="fill: #0000ff; opacity: 0.3; stroke: #ffffff; stroke-width: 0.24; stroke-linejoin: miter"/>
   </g>
   <g id="patch_20">
    <path d="M 181.498776 281.952 
L 188.786939 281.952 
L 188.786939 276.26016 
L 181.498776 276.26016 
z
" clip-path="url(#p688a99c73a)" style="fill: #0000ff; opacity: 0.3; stroke: #ffffff; stroke-width: 0.24; stroke-linejoin: miter"/>
   </g>
   <g id="patch_21">
    <path d="M 188.786939 281.952 
L 196.075102 281.952 
L 196.075102 279.675264 
L 188.786939 279.675264 
z
" clip-path="url(#p688a99c73a)" style="fill: #0000ff; opacity: 0.3; stroke: #ffffff; stroke-width: 0.24; stroke-linejoin: miter"/>
   </g>
   <g id="patch_22">
    <path d="M 196.075102 281.952 
L 203.363265 281.952 
L 203.363265 279.675264 
L 196.075102 279.675264 
z
" clip-path="url(#p688a99c73a)" style="fill: #0000ff; opacity: 0.3; stroke: #ffffff; stroke-width: 0.24; stroke-linejoin: miter"/>
   </g>
   <g id="patch_23">
    <path d="M 203.363265 281.952 
L 210.651429 281.952 
L 210.651429 281.952 
L 203.363265 281.952 
z
" clip-path="url(#p688a99c73a)" style="fill: #0000ff; opacity: 0.3; stroke: #ffffff; stroke-width: 0.24; stroke-linejoin: miter"/>
   </g>
   <g id="patch_24">
    <path d="M 210.651429 281.952 
L 217.939592 281.952 
L 217.939592 280.813632 
L 210.651429 280.813632 
z
" clip-path="url(#p688a99c73a)" style="fill: #0000ff; opacity: 0.3; stroke: #ffffff; stroke-width: 0.24; stroke-linejoin: miter"/>
   </g>
   <g id="patch_25">
    <path d="M 217.939592 281.952 
L 225.227755 281.952 
L 225.227755 279.675264 
L 217.939592 279.675264 
z
" clip-path="url(#p688a99c73a)" style="fill: #0000ff; opacity: 0.3; stroke: #ffffff; stroke-width: 0.24; stroke-linejoin: miter"/>
   </g>
   <g id="patch_26">
    <path d="M 225.227755 281.952 
L 232.515918 281.952 
L 232.515918 280.813632 
L 225.227755 280.813632 
z
" clip-path="url(#p688a99c73a)" style="fill: #0000ff; opacity: 0.3; stroke: #ffffff; stroke-width: 0.24; stroke-linejoin: miter"/>
   </g>
   <g id="patch_27">
    <path d="M 232.515918 281.952 
L 239.804082 281.952 
L 239.804082 280.813632 
L 232.515918 280.813632 
z
" clip-path="url(#p688a99c73a)" style="fill: #0000ff; opacity: 0.3; stroke: #ffffff; stroke-width: 0.24; stroke-linejoin: miter"/>
   </g>
   <g id="patch_28">
    <path d="M 239.804082 281.952 
L 247.092245 281.952 
L 247.092245 281.952 
L 239.804082 281.952 
z
" clip-path="url(#p688a99c73a)" style="fill: #0000ff; opacity: 0.3; stroke: #ffffff; stroke-width: 0.24; stroke-linejoin: miter"/>
   </g>
   <g id="patch_29">
    <path d="M 247.092245 281.952 
L 254.380408 281.952 
L 254.380408 281.952 
L 247.092245 281.952 
z
" clip-path="url(#p688a99c73a)" style="fill: #0000ff; opacity: 0.3; stroke: #ffffff; stroke-width: 0.24; stroke-linejoin: miter"/>
   </g>
   <g id="patch_30">
    <path d="M 254.380408 281.952 
L 261.668571 281.952 
L 261.668571 281.952 
L 254.380408 281.952 
z
" clip-path="url(#p688a99c73a)" style="fill: #0000ff; opacity: 0.3; stroke: #ffffff; stroke-width: 0.24; stroke-linejoin: miter"/>
   </g>
   <g id="patch_31">
    <path d="M 261.668571 281.952 
L 268.956735 281.952 
L 268.956735 281.952 
L 261.668571 281.952 
z
" clip-path="url(#p688a99c73a)" style="fill: #0000ff; opacity: 0.3; stroke: #ffffff; stroke-width: 0.24; stroke-linejoin: miter"/>
   </g>
   <g id="patch_32">
    <path d="M 268.956735 281.952 
L 276.244898 281.952 
L 276.244898 281.952 
L 268.956735 281.952 
z
" clip-path="url(#p688a99c73a)" style="fill: #0000ff; opacity: 0.3; stroke: #ffffff; stroke-width: 0.24; stroke-linejoin: miter"/>
   </g>
   <g id="patch_33">
    <path d="M 276.244898 281.952 
L 283.533061 281.952 
L 283.533061 281.952 
L 276.244898 281.952 
z
" clip-path="url(#p688a99c73a)" style="fill: #0000ff; opacity: 0.3; stroke: #ffffff; stroke-width: 0.24; stroke-linejoin: miter"/>
   </g>
   <g id="patch_34">
    <path d="M 283.533061 281.952 
L 290.821224 281.952 
L 290.821224 281.952 
L 283.533061 281.952 
z
" clip-path="url(#p688a99c73a)" style="fill: #0000ff; opacity: 0.3; stroke: #ffffff; stroke-width: 0.24; stroke-linejoin: miter"/>
   </g>
   <g id="patch_35">
    <path d="M 290.821224 281.952 
L 298.109388 281.952 
L 298.109388 281.952 
L 290.821224 281.952 
z
" clip-path="url(#p688a99c73a)" style="fill: #0000ff; opacity: 0.3; stroke: #ffffff; stroke-width: 0.24; stroke-linejoin: miter"/>
   </g>
   <g id="patch_36">
    <path d="M 298.109388 281.952 
L 305.397551 281.952 
L 305.397551 281.952 
L 298.109388 281.952 
z
" clip-path="url(#p688a99c73a)" style="fill: #0000ff; opacity: 0.3; stroke: #ffffff; stroke-width: 0.24; stroke-linejoin: miter"/>
   </g>
   <g id="patch_37">
    <path d="M 305.397551 281.952 
L 312.685714 281.952 
L 312.685714 281.952 
L 305.397551 281.952 
z
" clip-path="url(#p688a99c73a)" style="fill: #0000ff; opacity: 0.3; stroke: #ffffff; stroke-width: 0.24; stroke-linejoin: miter"/>
   </g>
   <g id="patch_38">
    <path d="M 312.685714 281.952 
L 319.973878 281.952 
L 319.973878 281.952 
L 312.685714 281.952 
z
" clip-path="url(#p688a99c73a)" style="fill: #0000ff; opacity: 0.3; stroke: #ffffff; stroke-width: 0.24; stroke-linejoin: miter"/>
   </g>
   <g id="patch_39">
    <path d="M 319.973878 281.952 
L 327.262041 281.952 
L 327.262041 281.952 
L 319.973878 281.952 
z
" clip-path="url(#p688a99c73a)" style="fill: #0000ff; opacity: 0.3; stroke: #ffffff; stroke-width: 0.24; stroke-linejoin: miter"/>
   </g>
   <g id="patch_40">
    <path d="M 327.262041 281.952 
L 334.550204 281.952 
L 334.550204 281.952 
L 327.262041 281.952 
z
" clip-path="url(#p688a99c73a)" style="fill: #0000ff; opacity: 0.3; stroke: #ffffff; stroke-width: 0.24; stroke-linejoin: miter"/>
   </g>
   <g id="patch_41">
    <path d="M 334.550204 281.952 
L 341.838367 281.952 
L 341.838367 281.952 
L 334.550204 281.952 
z
" clip-path="url(#p688a99c73a)" style="fill: #0000ff; opacity: 0.3; stroke: #ffffff; stroke-width: 0.24; stroke-linejoin: miter"/>
   </g>
   <g id="patch_42">
    <path d="M 341.838367 281.952 
L 349.126531 281.952 
L 349.126531 281.952 
L 341.838367 281.952 
z
" clip-path="url(#p688a99c73a)" style="fill: #0000ff; opacity: 0.3; stroke: #ffffff; stroke-width: 0.24; stroke-linejoin: miter"/>
   </g>
   <g id="patch_43">
    <path d="M 349.126531 281.952 
L 356.414694 281.952 
L 356.414694 281.952 
L 349.126531 281.952 
z
" clip-path="url(#p688a99c73a)" style="fill: #0000ff; opacity: 0.3; stroke: #ffffff; stroke-width: 0.24; stroke-linejoin: miter"/>
   </g>
   <g id="patch_44">
    <path d="M 356.414694 281.952 
L 363.702857 281.952 
L 363.702857 281.952 
L 356.414694 281.952 
z
" clip-path="url(#p688a99c73a)" style="fill: #0000ff; opacity: 0.3; stroke: #ffffff; stroke-width: 0.24; stroke-linejoin: miter"/>
   </g>
   <g id="patch_45">
    <path d="M 363.702857 281.952 
L 370.99102 281.952 
L 370.99102 281.952 
L 363.702857 281.952 
z
" clip-path="url(#p688a99c73a)" style="fill: #0000ff; opacity: 0.3; stroke: #ffffff; stroke-width: 0.24; stroke-linejoin: miter"/>
   </g>
   <g id="patch_46">
    <path d="M 370.99102 281.952 
L 378.279184 281.952 
L 378.279184 281.952 
L 370.99102 281.952 
z
" clip-path="url(#p688a99c73a)" style="fill: #0000ff; opacity: 0.3; stroke: #ffffff; stroke-width: 0.24; stroke-linejoin: miter"/>
   </g>
   <g id="patch_47">
    <path d="M 378.279184 281.952 
L 385.567347 281.952 
L 385.567347 281.952 
L 378.279184 281.952 
z
" clip-path="url(#p688a99c73a)" style="fill: #0000ff; opacity: 0.3; stroke: #ffffff; stroke-width: 0.24; stroke-linejoin: miter"/>
   </g>
   <g id="patch_48">
    <path d="M 385.567347 281.952 
L 392.85551 281.952 
L 392.85551 281.952 
L 385.567347 281.952 
z
" clip-path="url(#p688a99c73a)" style="fill: #0000ff; opacity: 0.3; stroke: #ffffff; stroke-width: 0.24; stroke-linejoin: miter"/>
   </g>
   <g id="patch_49">
    <path d="M 392.85551 281.952 
L 400.143673 281.952 
L 400.143673 281.952 
L 392.85551 281.952 
z
" clip-path="url(#p688a99c73a)" style="fill: #0000ff; opacity: 0.3; stroke: #ffffff; stroke-width: 0.24; stroke-linejoin: miter"/>
   </g>
   <g id="patch_50">
    <path d="M 400.143673 281.952 
L 407.431837 281.952 
L 407.431837 281.952 
L 400.143673 281.952 
z
" clip-path="url(#p688a99c73a)" style="fill: #0000ff; opacity: 0.3; stroke: #ffffff; stroke-width: 0.24; stroke-linejoin: miter"/>
   </g>
   <g id="patch_51">
    <path d="M 407.431837 281.952 
L 414.72 281.952 
L 414.72 281.952 
L 407.431837 281.952 
z
" clip-path="url(#p688a99c73a)" style="fill: #0000ff; opacity: 0.3; stroke: #ffffff; stroke-width: 0.24; stroke-linejoin: miter"/>
   </g>
   <g id="patch_52">
    <path d="M 57.6 281.952 
L 64.888163 281.952 
L 64.888163 248.939328 
L 57.6 248.939328 
z
" clip-path="url(#p688a99c73a)" style="fill: #ffa500; opacity: 0.3; stroke: #ffffff; stroke-width: 0.24; stroke-linejoin: miter"/>
   </g>
   <g id="patch_53">
    <path d="M 64.888163 281.952 
L 72.176327 281.952 
L 72.176327 262.599744 
L 64.888163 262.599744 
z
" clip-path="url(#p688a99c73a)" style="fill: #ffa500; opacity: 0.3; stroke: #ffffff; stroke-width: 0.24; stroke-linejoin: miter"/>
   </g>
   <g id="patch_54">
    <path d="M 72.176327 281.952 
L 79.46449 281.952 
L 79.46449 253.4928 
L 72.176327 253.4928 
z
" clip-path="url(#p688a99c73a)" style="fill: #ffa500; opacity: 0.3; stroke: #ffffff; stroke-width: 0.24; stroke-linejoin: miter"/>
   </g>
   <g id="patch_55">
    <path d="M 79.46449 281.952 
L 86.752653 281.952 
L 86.752653 264.87648 
L 79.46449 264.87648 
z
" clip-path="url(#p688a99c73a)" style="fill: #ffa500; opacity: 0.3; stroke: #ffffff; stroke-width: 0.24; stroke-linejoin: miter"/>
   </g>
   <g id="patch_56">
    <path d="M 86.752653 281.952 
L 94.040816 281.952 
L 94.040816 263.738112 
L 86.752653 263.738112 
z
" clip-path="url(#p688a99c73a)" style="fill: #ffa500; opacity: 0.3; stroke: #ffffff; stroke-width: 0.24; stroke-linejoin: miter"/>
   </g>
   <g id="patch_57">
    <path d="M 94.040816 281.952 
L 101.32898 281.952 
L 101.32898 255.769536 
L 94.040816 255.769536 
z
" clip-path="url(#p688a99c73a)" style="fill: #ffa500; opacity: 0.3; stroke: #ffffff; stroke-width: 0.24; stroke-linejoin: miter"/>
   </g>
   <g id="patch_58">
    <path d="M 101.32898 281.952 
L 108.617143 281.952 
L 108.617143 268.291584 
L 101.32898 268.291584 
z
" clip-path="url(#p688a99c73a)" style="fill: #ffa500; opacity: 0.3; stroke: #ffffff; stroke-width: 0.24; stroke-linejoin: miter"/>
   </g>
   <g id="patch_59">
    <path d="M 108.617143 281.952 
L 115.905306 281.952 
L 115.905306 262.599744 
L 108.617143 262.599744 
z
" clip-path="url(#p688a99c73a)" style="fill: #ffa500; opacity: 0.3; stroke: #ffffff; stroke-width: 0.24; stroke-linejoin: miter"/>
   </g>
   <g id="patch_60">
    <path d="M 115.905306 281.952 
L 123.193469 281.952 
L 123.193469 253.4928 
L 115.905306 253.4928 
z
" clip-path="url(#p688a99c73a)" style="fill: #ffa500; opacity: 0.3; stroke: #ffffff; stroke-width: 0.24; stroke-linejoin: miter"/>
   </g>
   <g id="patch_61">
    <path d="M 123.193469 281.952 
L 130.481633 281.952 
L 130.481633 264.87648 
L 123.193469 264.87648 
z
" clip-path="url(#p688a99c73a)" style="fill: #ffa500; opacity: 0.3; stroke: #ffffff; stroke-width: 0.24; stroke-linejoin: miter"/>
   </g>
   <g id="patch_62">
    <path d="M 130.481633 281.952 
L 137.769796 281.952 
L 137.769796 250.077696 
L 130.481633 250.077696 
z
" clip-path="url(#p688a99c73a)" style="fill: #ffa500; opacity: 0.3; stroke: #ffffff; stroke-width: 0.24; stroke-linejoin: miter"/>
   </g>
   <g id="patch_63">
    <path d="M 137.769796 281.952 
L 145.057959 281.952 
L 145.057959 254.631168 
L 137.769796 254.631168 
z
" clip-path="url(#p688a99c73a)" style="fill: #ffa500; opacity: 0.3; stroke: #ffffff; stroke-width: 0.24; stroke-linejoin: miter"/>
   </g>
   <g id="patch_64">
    <path d="M 145.057959 281.952 
L 152.346122 281.952 
L 152.346122 261.461376 
L 145.057959 261.461376 
z
" clip-path="url(#p688a99c73a)" style="fill: #ffa500; opacity: 0.3; stroke: #ffffff; stroke-width: 0.24; stroke-linejoin: miter"/>
   </g>
   <g id="patch_65">
    <path d="M 152.346122 281.952 
L 159.634286 281.952 
L 159.634286 261.461376 
L 152.346122 261.461376 
z
" clip-path="url(#p688a99c73a)" style="fill: #ffa500; opacity: 0.3; stroke: #ffffff; stroke-width: 0.24; stroke-linejoin: miter"/>
   </g>
   <g id="patch_66">
    <path d="M 159.634286 281.952 
L 166.922449 281.952 
L 166.922449 259.18464 
L 159.634286 259.18464 
z
" clip-path="url(#p688a99c73a)" style="fill: #ffa500; opacity: 0.3; stroke: #ffffff; stroke-width: 0.24; stroke-linejoin: miter"/>
   </g>
   <g id="patch_67">
    <path d="M 166.922449 281.952 
L 174.210612 281.952 
L 174.210612 258.046272 
L 166.922449 258.046272 
z
" clip-path="url(#p688a99c73a)" style="fill: #ffa500; opacity: 0.3; stroke: #ffffff; stroke-width: 0.24; stroke-linejoin: miter"/>
   </g>
   <g id="patch_68">
    <path d="M 174.210612 281.952 
L 181.498776 281.952 
L 181.498776 258.046272 
L 174.210612 258.046272 
z
" clip-path="url(#p688a99c73a)" style="fill: #ffa500; opacity: 0.3; stroke: #ffffff; stroke-width: 0.24; stroke-linejoin: miter"/>
   </g>
   <g id="patch_69">
    <path d="M 181.498776 281.952 
L 188.786939 281.952 
L 188.786939 254.631168 
L 181.498776 254.631168 
z
" clip-path="url(#p688a99c73a)" style="fill: #ffa500; opacity: 0.3; stroke: #ffffff; stroke-width: 0.24; stroke-linejoin: miter"/>
   </g>
   <g id="patch_70">
    <path d="M 188.786939 281.952 
L 196.075102 281.952 
L 196.075102 261.461376 
L 188.786939 261.461376 
z
" clip-path="url(#p688a99c73a)" style="fill: #ffa500; opacity: 0.3; stroke: #ffffff; stroke-width: 0.24; stroke-linejoin: miter"/>
   </g>
   <g id="patch_71">
    <path d="M 196.075102 281.952 
L 203.363265 281.952 
L 203.363265 256.907904 
L 196.075102 256.907904 
z
" clip-path="url(#p688a99c73a)" style="fill: #ffa500; opacity: 0.3; stroke: #ffffff; stroke-width: 0.24; stroke-linejoin: miter"/>
   </g>
   <g id="patch_72">
    <path d="M 203.363265 281.952 
L 210.651429 281.952 
L 210.651429 258.046272 
L 203.363265 258.046272 
z
" clip-path="url(#p688a99c73a)" style="fill: #ffa500; opacity: 0.3; stroke: #ffffff; stroke-width: 0.24; stroke-linejoin: miter"/>
   </g>
   <g id="patch_73">
    <path d="M 210.651429 281.952 
L 217.939592 281.952 
L 217.939592 255.769536 
L 210.651429 255.769536 
z
" clip-path="url(#p688a99c73a)" style="fill: #ffa500; opacity: 0.3; stroke: #ffffff; stroke-width: 0.24; stroke-linejoin: miter"/>
   </g>
   <g id="patch_74">
    <path d="M 217.939592 281.952 
L 225.227755 281.952 
L 225.227755 260.323008 
L 217.939592 260.323008 
z
" clip-path="url(#p688a99c73a)" style="fill: #ffa500; opacity: 0.3; stroke: #ffffff; stroke-width: 0.24; stroke-linejoin: miter"/>
   </g>
   <g id="patch_75">
    <path d="M 225.227755 281.952 
L 232.515918 281.952 
L 232.515918 251.216064 
L 225.227755 251.216064 
z
" clip-path="url(#p688a99c73a)" style="fill: #ffa500; opacity: 0.3; stroke: #ffffff; stroke-width: 0.24; stroke-linejoin: miter"/>
   </g>
   <g id="patch_76">
    <path d="M 232.515918 281.952 
L 239.804082 281.952 
L 239.804082 248.939328 
L 232.515918 248.939328 
z
" clip-path="url(#p688a99c73a)" style="fill: #ffa500; opacity: 0.3; stroke: #ffffff; stroke-width: 0.24; stroke-linejoin: miter"/>
   </g>
   <g id="patch_77">
    <path d="M 239.804082 281.952 
L 247.092245 281.952 
L 247.092245 254.631168 
L 239.804082 254.631168 
z
" clip-path="url(#p688a99c73a)" style="fill: #ffa500; opacity: 0.3; stroke: #ffffff; stroke-width: 0.24; stroke-linejoin: miter"/>
   </g>
   <g id="patch_78">
    <path d="M 247.092245 281.952 
L 254.380408 281.952 
L 254.380408 260.323008 
L 247.092245 260.323008 
z
" clip-path="url(#p688a99c73a)" style="fill: #ffa500; opacity: 0.3; stroke: #ffffff; stroke-width: 0.24; stroke-linejoin: miter"/>
   </g>
   <g id="patch_79">
    <path d="M 254.380408 281.952 
L 261.668571 281.952 
L 261.668571 255.769536 
L 254.380408 255.769536 
z
" clip-path="url(#p688a99c73a)" style="fill: #ffa500; opacity: 0.3; stroke: #ffffff; stroke-width: 0.24; stroke-linejoin: miter"/>
   </g>
   <g id="patch_80">
    <path d="M 261.668571 281.952 
L 268.956735 281.952 
L 268.956735 260.323008 
L 261.668571 260.323008 
z
" clip-path="url(#p688a99c73a)" style="fill: #ffa500; opacity: 0.3; stroke: #ffffff; stroke-width: 0.24; stroke-linejoin: miter"/>
   </g>
   <g id="patch_81">
    <path d="M 268.956735 281.952 
L 276.244898 281.952 
L 276.244898 263.738112 
L 268.956735 263.738112 
z
" clip-path="url(#p688a99c73a)" style="fill: #ffa500; opacity: 0.3; stroke: #ffffff; stroke-width: 0.24; stroke-linejoin: miter"/>
   </g>
   <g id="patch_82">
    <path d="M 276.244898 281.952 
L 283.533061 281.952 
L 283.533061 264.87648 
L 276.244898 264.87648 
z
" clip-path="url(#p688a99c73a)" style="fill: #ffa500; opacity: 0.3; stroke: #ffffff; stroke-width: 0.24; stroke-linejoin: miter"/>
   </g>
   <g id="patch_83">
    <path d="M 283.533061 281.952 
L 290.821224 281.952 
L 290.821224 264.87648 
L 283.533061 264.87648 
z
" clip-path="url(#p688a99c73a)" style="fill: #ffa500; opacity: 0.3; stroke: #ffffff; stroke-width: 0.24; stroke-linejoin: miter"/>
   </g>
   <g id="patch_84">
    <path d="M 290.821224 281.952 
L 298.109388 281.952 
L 298.109388 262.599744 
L 290.821224 262.599744 
z
" clip-path="url(#p688a99c73a)" style="fill: #ffa500; opacity: 0.3; stroke: #ffffff; stroke-width: 0.24; stroke-linejoin: miter"/>
   </g>
   <g id="patch_85">
    <path d="M 298.109388 281.952 
L 305.397551 281.952 
L 305.397551 251.216064 
L 298.109388 251.216064 
z
" clip-path="url(#p688a99c73a)" style="fill: #ffa500; opacity: 0.3; stroke: #ffffff; stroke-width: 0.24; stroke-linejoin: miter"/>
   </g>
   <g id="patch_86">
    <path d="M 305.397551 281.952 
L 312.685714 281.952 
L 312.685714 253.4928 
L 305.397551 253.4928 
z
" clip-path="url(#p688a99c73a)" style="fill: #ffa500; opacity: 0.3; stroke: #ffffff; stroke-width: 0.24; stroke-linejoin: miter"/>
   </g>
   <g id="patch_87">
    <path d="M 312.685714 281.952 
L 319.973878 281.952 
L 319.973878 260.323008 
L 312.685714 260.323008 
z
" clip-path="url(#p688a99c73a)" style="fill: #ffa500; opacity: 0.3; stroke: #ffffff; stroke-width: 0.24; stroke-linejoin: miter"/>
   </g>
   <g id="patch_88">
    <path d="M 319.973878 281.952 
L 327.262041 281.952 
L 327.262041 260.323008 
L 319.973878 260.323008 
z
" clip-path="url(#p688a99c73a)" style="fill: #ffa500; opacity: 0.3; stroke: #ffffff; stroke-width: 0.24; stroke-linejoin: miter"/>
   </g>
   <g id="patch_89">
    <path d="M 327.262041 281.952 
L 334.550204 281.952 
L 334.550204 258.046272 
L 327.262041 258.046272 
z
" clip-path="url(#p688a99c73a)" style="fill: #ffa500; opacity: 0.3; stroke: #ffffff; stroke-width: 0.24; stroke-linejoin: miter"/>
   </g>
   <g id="patch_90">
    <path d="M 334.550204 281.952 
L 341.838367 281.952 
L 341.838367 259.18464 
L 334.550204 259.18464 
z
" clip-path="url(#p688a99c73a)" style="fill: #ffa500; opacity: 0.3; stroke: #ffffff; stroke-width: 0.24; stroke-linejoin: miter"/>
   </g>
   <g id="patch_91">
    <path d="M 341.838367 281.952 
L 349.126531 281.952 
L 349.126531 270.56832 
L 341.838367 270.56832 
z
" clip-path="url(#p688a99c73a)" style="fill: #ffa500; opacity: 0.3; stroke: #ffffff; stroke-width: 0.24; stroke-linejoin: miter"/>
   </g>
   <g id="patch_92">
    <path d="M 349.126531 281.952 
L 356.414694 281.952 
L 356.414694 258.046272 
L 349.126531 258.046272 
z
" clip-path="url(#p688a99c73a)" style="fill: #ffa500; opacity: 0.3; stroke: #ffffff; stroke-width: 0.24; stroke-linejoin: miter"/>
   </g>
   <g id="patch_93">
    <path d="M 356.414694 281.952 
L 363.702857 281.952 
L 363.702857 259.18464 
L 356.414694 259.18464 
z
" clip-path="url(#p688a99c73a)" style="fill: #ffa500; opacity: 0.3; stroke: #ffffff; stroke-width: 0.24; stroke-linejoin: miter"/>
   </g>
   <g id="patch_94">
    <path d="M 363.702857 281.952 
L 370.99102 281.952 
L 370.99102 255.769536 
L 363.702857 255.769536 
z
" clip-path="url(#p688a99c73a)" style="fill: #ffa500; opacity: 0.3; stroke: #ffffff; stroke-width: 0.24; stroke-linejoin: miter"/>
   </g>
   <g id="patch_95">
    <path d="M 370.99102 281.952 
L 378.279184 281.952 
L 378.279184 258.046272 
L 370.99102 258.046272 
z
" clip-path="url(#p688a99c73a)" style="fill: #ffa500; opacity: 0.3; stroke: #ffffff; stroke-width: 0.24; stroke-linejoin: miter"/>
   </g>
   <g id="patch_96">
    <path d="M 378.279184 281.952 
L 385.567347 281.952 
L 385.567347 259.18464 
L 378.279184 259.18464 
z
" clip-path="url(#p688a99c73a)" style="fill: #ffa500; opacity: 0.3; stroke: #ffffff; stroke-width: 0.24; stroke-linejoin: miter"/>
   </g>
   <g id="patch_97">
    <path d="M 385.567347 281.952 
L 392.85551 281.952 
L 392.85551 263.738112 
L 385.567347 263.738112 
z
" clip-path="url(#p688a99c73a)" style="fill: #ffa500; opacity: 0.3; stroke: #ffffff; stroke-width: 0.24; stroke-linejoin: miter"/>
   </g>
   <g id="patch_98">
    <path d="M 392.85551 281.952 
L 400.143673 281.952 
L 400.143673 261.461376 
L 392.85551 261.461376 
z
" clip-path="url(#p688a99c73a)" style="fill: #ffa500; opacity: 0.3; stroke: #ffffff; stroke-width: 0.24; stroke-linejoin: miter"/>
   </g>
   <g id="patch_99">
    <path d="M 400.143673 281.952 
L 407.431837 281.952 
L 407.431837 258.046272 
L 400.143673 258.046272 
z
" clip-path="url(#p688a99c73a)" style="fill: #ffa500; opacity: 0.3; stroke: #ffffff; stroke-width: 0.24; stroke-linejoin: miter"/>
   </g>
   <g id="patch_100">
    <path d="M 407.431837 281.952 
L 414.72 281.952 
L 414.72 254.631168 
L 407.431837 254.631168 
z
" clip-path="url(#p688a99c73a)" style="fill: #ffa500; opacity: 0.3; stroke: #ffffff; stroke-width: 0.24; stroke-linejoin: miter"/>
   </g>
   <g id="line2d_13">
    <path d="M 57.6 49.632 
L 61.207273 69.918477 
L 64.814545 88.614786 
L 68.421818 105.83108 
L 72.029091 121.670907 
L 75.636364 136.231541 
L 79.243636 149.604304 
L 82.850909 161.874871 
L 86.458182 173.123566 
L 90.065455 183.425641 
L 93.672727 192.851548 
L 97.28 201.467195 
L 100.887273 209.334194 
L 104.494545 216.510099 
L 108.101818 223.048625 
L 111.709091 228.999871 
L 115.316364 234.410522 
L 118.923636 239.324043 
L 122.530909 243.78087 
L 126.138182 247.818586 
L 129.745455 251.472091 
L 133.352727 254.773764 
L 136.96 257.753615 
L 140.567273 260.439436 
L 144.174545 262.856932 
L 147.781818 265.029858 
L 151.389091 266.980146 
L 154.996364 268.728016 
L 158.603636 270.292096 
L 162.210909 271.689523 
L 165.818182 272.936046 
L 169.425455 274.046123 
L 173.032727 275.033004 
L 176.64 275.908824 
L 180.247273 276.684676 
L 183.854545 277.370691 
L 187.461818 277.976106 
L 191.069091 278.509333 
L 194.676364 278.978018 
L 198.283636 279.389103 
L 201.890909 279.748881 
L 205.498182 280.063044 
L 209.105455 280.336736 
L 212.712727 280.574594 
L 216.32 280.780792 
L 219.927273 280.959081 
L 223.534545 281.112825 
L 227.141818 281.245032 
L 230.749091 281.35839 
L 234.356364 281.455293 
L 237.963636 281.537872 
L 241.570909 281.608014 
L 245.178182 281.66739 
L 248.785455 281.717474 
L 252.392727 281.759566 
L 256 281.794803 
L 259.607273 281.824184 
L 263.214545 281.848578 
L 266.821818 281.868742 
L 270.429091 281.885333 
L 274.036364 281.898918 
L 277.643636 281.909983 
L 281.250909 281.918949 
L 284.858182 281.926172 
L 288.465455 281.931956 
L 292.072727 281.936559 
L 295.68 281.940197 
L 299.287273 281.943052 
L 302.894545 281.945276 
L 306.501818 281.946994 
L 310.109091 281.948311 
L 313.716364 281.94931 
L 317.323636 281.950061 
L 320.930909 281.950619 
L 324.538182 281.95103 
L 328.145455 281.951328 
L 331.752727 281.951542 
L 335.36 281.951693 
L 338.967273 281.951798 
L 342.574545 281.95187 
L 346.181818 281.951918 
L 349.789091 281.95195 
L 353.396364 281.95197 
L 357.003636 281.951983 
L 360.610909 281.95199 
L 364.218182 281.951995 
L 367.825455 281.951997 
L 371.432727 281.951999 
L 375.04 281.951999 
L 378.647273 281.952 
L 382.254545 281.952 
L 385.861818 281.952 
L 389.469091 281.952 
L 393.076364 281.952 
L 396.683636 281.952 
L 400.290909 281.952 
L 403.898182 281.952 
L 407.505455 281.952 
L 411.112727 281.952 
L 414.72 281.952 
" clip-path="url(#p688a99c73a)" style="fill: none; stroke: #0000ff; stroke-width: 1.4; stroke-linecap: round"/>
   </g>
   <g id="line2d_14">
    <path d="M 57.6 258.72 
L 61.207273 258.72 
L 64.814545 258.72 
L 68.421818 258.72 
L 72.029091 258.72 
L 75.636364 258.72 
L 79.243636 258.72 
L 82.850909 258.72 
L 86.458182 258.72 
L 90.065455 258.72 
L 93.672727 258.72 
L 97.28 258.72 
L 100.887273 258.72 
L 104.494545 258.72 
L 108.101818 258.72 
L 111.709091 258.72 
L 115.316364 258.72 
L 118.923636 258.72 
L 122.530909 258.72 
L 126.138182 258.72 
L 129.745455 258.72 
L 133.352727 258.72 
L 136.96 258.72 
L 140.567273 258.72 
L 144.174545 258.72 
L 147.781818 258.72 
L 151.389091 258.72 
L 154.996364 258.72 
L 158.603636 258.72 
L 162.210909 258.72 
L 165.818182 258.72 
L 169.425455 258.72 
L 173.032727 258.72 
L 176.64 258.72 
L 180.247273 258.72 
L 183.854545 258.72 
L 187.461818 258.72 
L 191.069091 258.72 
L 194.676364 258.72 
L 198.283636 258.72 
L 201.890909 258.72 
L 205.498182 258.72 
L 209.105455 258.72 
L 212.712727 258.72 
L 216.32 258.72 
L 219.927273 258.72 
L 223.534545 258.72 
L 227.141818 258.72 
L 230.749091 258.72 
L 234.356364 258.72 
L 237.963636 258.72 
L 241.570909 258.72 
L 245.178182 258.72 
L 248.785455 258.72 
L 252.392727 258.72 
L 256 258.72 
L 259.607273 258.72 
L 263.214545 258.72 
L 266.821818 258.72 
L 270.429091 258.72 
L 274.036364 258.72 
L 277.643636 258.72 
L 281.250909 258.72 
L 284.858182 258.72 
L 288.465455 258.72 
L 292.072727 258.72 
L 295.68 258.72 
L 299.287273 258.72 
L 302.894545 258.72 
L 306.501818 258.72 
L 310.109091 258.72 
L 313.716364 258.72 
L 317.323636 258.72 
L 320.930909 258.72 
L 324.538182 258.72 
L 328.145455 258.72 
L 331.752727 258.72 
L 335.36 258.72 
L 338.967273 258.72 
L 342.574545 258.72 
L 346.181818 258.72 
L 349.789091 258.72 
L 353.396364 258.72 
L 357.003636 258.72 
L 360.610909 258.72 
L 364.218182 258.72 
L 367.825455 258.72 
L 371.432727 258.72 
L 375.04 258.72 
L 378.647273 258.72 
L 382.254545 258.72 
L 385.861818 258.72 
L 389.469091 258.72 
L 393.076364 258.72 
L 396.683636 258.72 
L 400.290909 258.72 
L 403.898182 258.72 
L 407.505455 258.72 
L 411.112727 258.72 
L 414.72 258.72 
" clip-path="url(#p688a99c73a)" style="fill: none; stroke: #ffa500; stroke-width: 1.4; stroke-linecap: round"/>
   </g>
   <g id="patch_101">
    <path d="M 57.6 281.952 
L 57.6 38.016 
" style="fill: none; stroke: #262626; stroke-width: 1.25; stroke-linejoin: miter; stroke-linecap: square"/>
   </g>
   <g id="patch_102">
    <path d="M 414.72 281.952 
L 414.72 38.016 
" style="fill: none; stroke: #262626; stroke-width: 1.25; stroke-linejoin: miter; stroke-linecap: square"/>
   </g>
   <g id="patch_103">
    <path d="M 57.6 281.952 
L 414.72 281.952 
" style="fill: none; stroke: #262626; stroke-width: 1.25; stroke-linejoin: miter; stroke-linecap: square"/>
   </g>
   <g id="patch_104">
    <path d="M 57.6 38.016 
L 414.72 38.016 
" style="fill: none; stroke: #262626; stroke-width: 1.25; stroke-linejoin: miter; stroke-linecap: square"/>
   </g>
   <g id="text_13">
    <!-- Density of smallest p-value out of 10 p-values -->
    <g style="fill: #262626" transform="translate(139.31775 32.016)scale(0.096 -0.096)">
     <defs>
      <path id="ArialMT-44" d="M 494 0 
L 494 4581 
L 2072 4581 
Q 2606 4581 2888 4516 
Q 3281 4425 3559 4188 
Q 3922 3881 4101 3404 
Q 4281 2928 4281 2316 
Q 4281 1794 4159 1391 
Q 4038 988 3847 723 
Q 3656 459 3429 307 
Q 3203 156 2883 78 
Q 2563 0 2147 0 
L 494 0 
z
M 1100 541 
L 2078 541 
Q 2531 541 2789 625 
Q 3047 709 3200 863 
Q 3416 1078 3536 1442 
Q 3656 1806 3656 2325 
Q 3656 3044 3420 3430 
Q 3184 3816 2847 3947 
Q 2603 4041 2063 4041 
L 1100 4041 
L 1100 541 
z
" transform="scale(0.015625)"/>
      <path id="ArialMT-65" d="M 2694 1069 
L 3275 997 
Q 3138 488 2766 206 
Q 2394 -75 1816 -75 
Q 1088 -75 661 373 
Q 234 822 234 1631 
Q 234 2469 665 2931 
Q 1097 3394 1784 3394 
Q 2450 3394 2872 2941 
Q 3294 2488 3294 1666 
Q 3294 1616 3291 1516 
L 816 1516 
Q 847 969 1125 678 
Q 1403 388 1819 388 
Q 2128 388 2347 550 
Q 2566 713 2694 1069 
z
M 847 1978 
L 2700 1978 
Q 2663 2397 2488 2606 
Q 2219 2931 1791 2931 
Q 1403 2931 1139 2672 
Q 875 2413 847 1978 
z
" transform="scale(0.015625)"/>
      <path id="ArialMT-6e" d="M 422 0 
L 422 3319 
L 928 3319 
L 928 2847 
Q 1294 3394 1984 3394 
Q 2284 3394 2536 3286 
Q 2788 3178 2913 3003 
Q 3038 2828 3088 2588 
Q 3119 2431 3119 2041 
L 3119 0 
L 2556 0 
L 2556 2019 
Q 2556 2363 2490 2533 
Q 2425 2703 2258 2804 
Q 2091 2906 1866 2906 
Q 1506 2906 1245 2678 
Q 984 2450 984 1813 
L 984 0 
L 422 0 
z
" transform="scale(0.015625)"/>
      <path id="ArialMT-73" d="M 197 991 
L 753 1078 
Q 800 744 1014 566 
Q 1228 388 1613 388 
Q 2000 388 2187 545 
Q 2375 703 2375 916 
Q 2375 1106 2209 1216 
Q 2094 1291 1634 1406 
Q 1016 1563 777 1677 
Q 538 1791 414 1992 
Q 291 2194 291 2438 
Q 291 2659 392 2848 
Q 494 3038 669 3163 
Q 800 3259 1026 3326 
Q 1253 3394 1513 3394 
Q 1903 3394 2198 3281 
Q 2494 3169 2634 2976 
Q 2775 2784 2828 2463 
L 2278 2388 
Q 2241 2644 2061 2787 
Q 1881 2931 1553 2931 
Q 1166 2931 1000 2803 
Q 834 2675 834 2503 
Q 834 2394 903 2306 
Q 972 2216 1119 2156 
Q 1203 2125 1616 2013 
Q 2213 1853 2448 1751 
Q 2684 1650 2818 1456 
Q 2953 1263 2953 975 
Q 2953 694 2789 445 
Q 2625 197 2315 61 
Q 2006 -75 1616 -75 
Q 969 -75 630 194 
Q 291 463 197 991 
z
" transform="scale(0.015625)"/>
      <path id="ArialMT-69" d="M 425 3934 
L 425 4581 
L 988 4581 
L 988 3934 
L 425 3934 
z
M 425 0 
L 425 3319 
L 988 3319 
L 988 0 
L 425 0 
z
" transform="scale(0.015625)"/>
      <path id="ArialMT-74" d="M 1650 503 
L 1731 6 
Q 1494 -44 1306 -44 
Q 1000 -44 831 53 
Q 663 150 594 308 
Q 525 466 525 972 
L 525 2881 
L 113 2881 
L 113 3319 
L 525 3319 
L 525 4141 
L 1084 4478 
L 1084 3319 
L 1650 3319 
L 1650 2881 
L 1084 2881 
L 1084 941 
Q 1084 700 1114 631 
Q 1144 563 1211 522 
Q 1278 481 1403 481 
Q 1497 481 1650 503 
z
" transform="scale(0.015625)"/>
      <path id="ArialMT-79" d="M 397 -1278 
L 334 -750 
Q 519 -800 656 -800 
Q 844 -800 956 -737 
Q 1069 -675 1141 -563 
Q 1194 -478 1313 -144 
Q 1328 -97 1363 -6 
L 103 3319 
L 709 3319 
L 1400 1397 
Q 1534 1031 1641 628 
Q 1738 1016 1872 1384 
L 2581 3319 
L 3144 3319 
L 1881 -56 
Q 1678 -603 1566 -809 
Q 1416 -1088 1222 -1217 
Q 1028 -1347 759 -1347 
Q 597 -1347 397 -1278 
z
" transform="scale(0.015625)"/>
      <path id="ArialMT-20" transform="scale(0.015625)"/>
      <path id="ArialMT-6f" d="M 213 1659 
Q 213 2581 725 3025 
Q 1153 3394 1769 3394 
Q 2453 3394 2887 2945 
Q 3322 2497 3322 1706 
Q 3322 1066 3130 698 
Q 2938 331 2570 128 
Q 2203 -75 1769 -75 
Q 1072 -75 642 372 
Q 213 819 213 1659 
z
M 791 1659 
Q 791 1022 1069 705 
Q 1347 388 1769 388 
Q 2188 388 2466 706 
Q 2744 1025 2744 1678 
Q 2744 2294 2464 2611 
Q 2184 2928 1769 2928 
Q 1347 2928 1069 2612 
Q 791 2297 791 1659 
z
" transform="scale(0.015625)"/>
      <path id="ArialMT-66" d="M 556 0 
L 556 2881 
L 59 2881 
L 59 3319 
L 556 3319 
L 556 3672 
Q 556 4006 616 4169 
Q 697 4388 901 4523 
Q 1106 4659 1475 4659 
Q 1713 4659 2000 4603 
L 1916 4113 
Q 1741 4144 1584 4144 
Q 1328 4144 1222 4034 
Q 1116 3925 1116 3625 
L 1116 3319 
L 1763 3319 
L 1763 2881 
L 1116 2881 
L 1116 0 
L 556 0 
z
" transform="scale(0.015625)"/>
      <path id="ArialMT-6d" d="M 422 0 
L 422 3319 
L 925 3319 
L 925 2853 
Q 1081 3097 1340 3245 
Q 1600 3394 1931 3394 
Q 2300 3394 2536 3241 
Q 2772 3088 2869 2813 
Q 3263 3394 3894 3394 
Q 4388 3394 4653 3120 
Q 4919 2847 4919 2278 
L 4919 0 
L 4359 0 
L 4359 2091 
Q 4359 2428 4304 2576 
Q 4250 2725 4106 2815 
Q 3963 2906 3769 2906 
Q 3419 2906 3187 2673 
Q 2956 2441 2956 1928 
L 2956 0 
L 2394 0 
L 2394 2156 
Q 2394 2531 2256 2718 
Q 2119 2906 1806 2906 
Q 1569 2906 1367 2781 
Q 1166 2656 1075 2415 
Q 984 2175 984 1722 
L 984 0 
L 422 0 
z
" transform="scale(0.015625)"/>
      <path id="ArialMT-61" d="M 2588 409 
Q 2275 144 1986 34 
Q 1697 -75 1366 -75 
Q 819 -75 525 192 
Q 231 459 231 875 
Q 231 1119 342 1320 
Q 453 1522 633 1644 
Q 813 1766 1038 1828 
Q 1203 1872 1538 1913 
Q 2219 1994 2541 2106 
Q 2544 2222 2544 2253 
Q 2544 2597 2384 2738 
Q 2169 2928 1744 2928 
Q 1347 2928 1158 2789 
Q 969 2650 878 2297 
L 328 2372 
Q 403 2725 575 2942 
Q 747 3159 1072 3276 
Q 1397 3394 1825 3394 
Q 2250 3394 2515 3294 
Q 2781 3194 2906 3042 
Q 3031 2891 3081 2659 
Q 3109 2516 3109 2141 
L 3109 1391 
Q 3109 606 3145 398 
Q 3181 191 3288 0 
L 2700 0 
Q 2613 175 2588 409 
z
M 2541 1666 
Q 2234 1541 1622 1453 
Q 1275 1403 1131 1340 
Q 988 1278 909 1158 
Q 831 1038 831 891 
Q 831 666 1001 516 
Q 1172 366 1500 366 
Q 1825 366 2078 508 
Q 2331 650 2450 897 
Q 2541 1088 2541 1459 
L 2541 1666 
z
" transform="scale(0.015625)"/>
      <path id="ArialMT-6c" d="M 409 0 
L 409 4581 
L 972 4581 
L 972 0 
L 409 0 
z
" transform="scale(0.015625)"/>
      <path id="ArialMT-70" d="M 422 -1272 
L 422 3319 
L 934 3319 
L 934 2888 
Q 1116 3141 1344 3267 
Q 1572 3394 1897 3394 
Q 2322 3394 2647 3175 
Q 2972 2956 3137 2557 
Q 3303 2159 3303 1684 
Q 3303 1175 3120 767 
Q 2938 359 2589 142 
Q 2241 -75 1856 -75 
Q 1575 -75 1351 44 
Q 1128 163 984 344 
L 984 -1272 
L 422 -1272 
z
M 931 1641 
Q 931 1000 1190 694 
Q 1450 388 1819 388 
Q 2194 388 2461 705 
Q 2728 1022 2728 1688 
Q 2728 2322 2467 2637 
Q 2206 2953 1844 2953 
Q 1484 2953 1207 2617 
Q 931 2281 931 1641 
z
" transform="scale(0.015625)"/>
      <path id="ArialMT-2d" d="M 203 1375 
L 203 1941 
L 1931 1941 
L 1931 1375 
L 203 1375 
z
" transform="scale(0.015625)"/>
      <path id="ArialMT-76" d="M 1344 0 
L 81 3319 
L 675 3319 
L 1388 1331 
Q 1503 1009 1600 663 
Q 1675 925 1809 1294 
L 2547 3319 
L 3125 3319 
L 1869 0 
L 1344 0 
z
" transform="scale(0.015625)"/>
      <path id="ArialMT-75" d="M 2597 0 
L 2597 488 
Q 2209 -75 1544 -75 
Q 1250 -75 995 37 
Q 741 150 617 320 
Q 494 491 444 738 
Q 409 903 409 1263 
L 409 3319 
L 972 3319 
L 972 1478 
Q 972 1038 1006 884 
Q 1059 663 1231 536 
Q 1403 409 1656 409 
Q 1909 409 2131 539 
Q 2353 669 2445 892 
Q 2538 1116 2538 1541 
L 2538 3319 
L 3100 3319 
L 3100 0 
L 2597 0 
z
" transform="scale(0.015625)"/>
     </defs>
     <use xlink:href="#ArialMT-44"/>
     <use xlink:href="#ArialMT-65" x="72.216797"/>
     <use xlink:href="#ArialMT-6e" x="127.832031"/>
     <use xlink:href="#ArialMT-73" x="183.447266"/>
     <use xlink:href="#ArialMT-69" x="233.447266"/>
     <use xlink:href="#ArialMT-74" x="255.664062"/>
     <use xlink:href="#ArialMT-79" x="283.447266"/>
     <use xlink:href="#ArialMT-20" x="333.447266"/>
     <use xlink:href="#ArialMT-6f" x="361.230469"/>
     <use xlink:href="#ArialMT-66" x="416.845703"/>
     <use xlink:href="#ArialMT-20" x="444.628906"/>
     <use xlink:href="#ArialMT-73" x="472.412109"/>
     <use xlink:href="#ArialMT-6d" x="522.412109"/>
     <use xlink:href="#ArialMT-61" x="605.712891"/>
     <use xlink:href="#ArialMT-6c" x="661.328125"/>
     <use xlink:href="#ArialMT-6c" x="683.544922"/>
     <use xlink:href="#ArialMT-65" x="705.761719"/>
     <use xlink:href="#ArialMT-73" x="761.376953"/>
     <use xlink:href="#ArialMT-74" x="811.376953"/>
     <use xlink:href="#ArialMT-20" x="839.160156"/>
     <use xlink:href="#ArialMT-70" x="866.943359"/>
     <use xlink:href="#ArialMT-2d" x="922.558594"/>
     <use xlink:href="#ArialMT-76" x="955.859375"/>
     <use xlink:href="#ArialMT-61" x="1005.859375"/>
     <use xlink:href="#ArialMT-6c" x="1061.474609"/>
     <use xlink:href="#ArialMT-75" x="1083.691406"/>
     <use xlink:href="#ArialMT-65" x="1139.306641"/>
     <use xlink:href="#ArialMT-20" x="1194.921875"/>
     <use xlink:href="#ArialMT-6f" x="1222.705078"/>
     <use xlink:href="#ArialMT-75" x="1278.320312"/>
     <use xlink:href="#ArialMT-74" x="1333.935547"/>
     <use xlink:href="#ArialMT-20" x="1361.71875"/>
     <use xlink:href="#ArialMT-6f" x="1389.501953"/>
     <use xlink:href="#ArialMT-66" x="1445.117188"/>
     <use xlink:href="#ArialMT-20" x="1472.900391"/>
     <use xlink:href="#ArialMT-31" x="1500.683594"/>
     <use xlink:href="#ArialMT-30" x="1556.298828"/>
     <use xlink:href="#ArialMT-20" x="1611.914062"/>
     <use xlink:href="#ArialMT-70" x="1639.697266"/>
     <use xlink:href="#ArialMT-2d" x="1695.3125"/>
     <use xlink:href="#ArialMT-76" x="1728.613281"/>
     <use xlink:href="#ArialMT-61" x="1778.613281"/>
     <use xlink:href="#ArialMT-6c" x="1834.228516"/>
     <use xlink:href="#ArialMT-75" x="1856.445312"/>
     <use xlink:href="#ArialMT-65" x="1912.060547"/>
     <use xlink:href="#ArialMT-73" x="1967.675781"/>
    </g>
   </g>
   <g id="legend_1">
    <g id="patch_105">
     <path d="M 324.38625 67.33725 
L 409.12 67.33725 
Q 410.72 67.33725 410.72 65.73725 
L 410.72 43.616 
Q 410.72 42.016 409.12 42.016 
L 324.38625 42.016 
Q 322.78625 42.016 322.78625 43.616 
L 322.78625 65.73725 
Q 322.78625 67.33725 324.38625 67.33725 
z
" style="fill: #ffffff; opacity: 0.8; stroke: #cccccc; stroke-width: 0.24; stroke-linejoin: miter"/>
    </g>
    <g id="line2d_15">
     <path d="M 325.98625 48.23975 
L 333.98625 48.23975 
L 341.98625 48.23975 
" style="fill: none; stroke: #0000ff; stroke-width: 1.4; stroke-linecap: round"/>
    </g>
    <g id="text_14">
     <!-- Smallest p-value -->
     <g style="fill: #262626" transform="translate(348.38625 51.03975)scale(0.08 -0.08)">
      <defs>
       <path id="ArialMT-53" d="M 288 1472 
L 859 1522 
Q 900 1178 1048 958 
Q 1197 738 1509 602 
Q 1822 466 2213 466 
Q 2559 466 2825 569 
Q 3091 672 3220 851 
Q 3350 1031 3350 1244 
Q 3350 1459 3225 1620 
Q 3100 1781 2813 1891 
Q 2628 1963 1997 2114 
Q 1366 2266 1113 2400 
Q 784 2572 623 2826 
Q 463 3081 463 3397 
Q 463 3744 659 4045 
Q 856 4347 1234 4503 
Q 1613 4659 2075 4659 
Q 2584 4659 2973 4495 
Q 3363 4331 3572 4012 
Q 3781 3694 3797 3291 
L 3216 3247 
Q 3169 3681 2898 3903 
Q 2628 4125 2100 4125 
Q 1550 4125 1298 3923 
Q 1047 3722 1047 3438 
Q 1047 3191 1225 3031 
Q 1400 2872 2139 2705 
Q 2878 2538 3153 2413 
Q 3553 2228 3743 1945 
Q 3934 1663 3934 1294 
Q 3934 928 3725 604 
Q 3516 281 3123 101 
Q 2731 -78 2241 -78 
Q 1619 -78 1198 103 
Q 778 284 539 648 
Q 300 1013 288 1472 
z
" transform="scale(0.015625)"/>
      </defs>
      <use xlink:href="#ArialMT-53"/>
      <use xlink:href="#ArialMT-6d" x="66.699219"/>
      <use xlink:href="#ArialMT-61" x="150"/>
      <use xlink:href="#ArialMT-6c" x="205.615234"/>
      <use xlink:href="#ArialMT-6c" x="227.832031"/>
      <use xlink:href="#ArialMT-65" x="250.048828"/>
      <use xlink:href="#ArialMT-73" x="305.664062"/>
      <use xlink:href="#ArialMT-74" x="355.664062"/>
      <use xlink:href="#ArialMT-20" x="383.447266"/>
      <use xlink:href="#ArialMT-70" x="411.230469"/>
      <use xlink:href="#ArialMT-2d" x="466.845703"/>
      <use xlink:href="#ArialMT-76" x="500.146484"/>
      <use xlink:href="#ArialMT-61" x="550.146484"/>
      <use xlink:href="#ArialMT-6c" x="605.761719"/>
      <use xlink:href="#ArialMT-75" x="627.978516"/>
      <use xlink:href="#ArialMT-65" x="683.59375"/>
     </g>
    </g>
    <g id="line2d_16">
     <path d="M 325.98625 59.6535 
L 333.98625 59.6535 
L 341.98625 59.6535 
" style="fill: none; stroke: #ffa500; stroke-width: 1.4; stroke-linecap: round"/>
    </g>
    <g id="text_15">
     <!-- Single p-value -->
     <g style="fill: #262626" transform="translate(348.38625 62.4535)scale(0.08 -0.08)">
      <defs>
       <path id="ArialMT-67" d="M 319 -275 
L 866 -356 
Q 900 -609 1056 -725 
Q 1266 -881 1628 -881 
Q 2019 -881 2231 -725 
Q 2444 -569 2519 -288 
Q 2563 -116 2559 434 
Q 2191 0 1641 0 
Q 956 0 581 494 
Q 206 988 206 1678 
Q 206 2153 378 2554 
Q 550 2956 876 3175 
Q 1203 3394 1644 3394 
Q 2231 3394 2613 2919 
L 2613 3319 
L 3131 3319 
L 3131 450 
Q 3131 -325 2973 -648 
Q 2816 -972 2473 -1159 
Q 2131 -1347 1631 -1347 
Q 1038 -1347 672 -1080 
Q 306 -813 319 -275 
z
M 784 1719 
Q 784 1066 1043 766 
Q 1303 466 1694 466 
Q 2081 466 2343 764 
Q 2606 1063 2606 1700 
Q 2606 2309 2336 2618 
Q 2066 2928 1684 2928 
Q 1309 2928 1046 2623 
Q 784 2319 784 1719 
z
" transform="scale(0.015625)"/>
      </defs>
      <use xlink:href="#ArialMT-53"/>
      <use xlink:href="#ArialMT-69" x="66.699219"/>
      <use xlink:href="#ArialMT-6e" x="88.916016"/>
      <use xlink:href="#ArialMT-67" x="144.53125"/>
      <use xlink:href="#ArialMT-6c" x="200.146484"/>
      <use xlink:href="#ArialMT-65" x="222.363281"/>
      <use xlink:href="#ArialMT-20" x="277.978516"/>
      <use xlink:href="#ArialMT-70" x="305.761719"/>
      <use xlink:href="#ArialMT-2d" x="361.376953"/>
      <use xlink:href="#ArialMT-76" x="394.677734"/>
      <use xlink:href="#ArialMT-61" x="444.677734"/>
      <use xlink:href="#ArialMT-6c" x="500.292969"/>
      <use xlink:href="#ArialMT-75" x="522.509766"/>
      <use xlink:href="#ArialMT-65" x="578.125"/>
     </g>
    </g>
   </g>
  </g>
 </g>
 <defs>
  <clipPath id="p688a99c73a">
   <rect x="57.6" y="38.016" width="357.12" height="243.936"/>
  </clipPath>
 </defs>
</svg>
